HIERARCHY
ROOT Hips
{
    OFFSET 0.000000 0.000000 0.000000
    CHANNELS 6 Xposition Yposition Zposition Zrotation Xrotation Yrotation
    JOINT Spine
    {
        OFFSET -0.000000 14.517291 0.000000
        CHANNELS 3 Zrotation Xrotation Yrotation
        JOINT Spine1
        {
            OFFSET -0.000000 37.558300 0.000000
            CHANNELS 3 Zrotation Xrotation Yrotation
            JOINT Neck
            {
                OFFSET -0.000000 37.404057 3.400369
                CHANNELS 3 Zrotation Xrotation Yrotation
                JOINT Head
                {
                    OFFSET -0.000000 24.785618 -3.540803
                    CHANNELS 3 Zrotation Xrotation Yrotation
                    End Site
                    {
                        OFFSET -0.000000 35.408028 0.000000
                    }
                }
            }
            JOINT LeftShoulder
            {
                OFFSET 6.992933 33.973492 -0.192664
                CHANNELS 3 Zrotation Xrotation Yrotation
                JOINT LeftArm
                {
                    OFFSET 21.527611 0.000000 0.000000
                    CHANNELS 3 Zrotation Xrotation Yrotation
                    JOINT LeftForeArm
                    {
                        OFFSET 56.353916 0.000000 0.000000
                        CHANNELS 3 Zrotation Xrotation Yrotation
                        JOINT LeftHand
                        {
                            OFFSET 47.774071 0.000000 0.000000
                            CHANNELS 3 Zrotation Xrotation Yrotation
                            End Site
                            {
                                OFFSET 26.556021 0.000000 0.000000
                            }
                        }
                    }
                }
            }
            JOINT RightShoulder
            {
                OFFSET -7.065357 33.973492 -0.192664
                CHANNELS 3 Zrotation Xrotation Yrotation
                JOINT RightArm
                {
                    OFFSET -21.527611 0.000000 0.000000
                    CHANNELS 3 Zrotation Xrotation Yrotation
                    JOINT RightForeArm
                    {
                        OFFSET -56.353916 0.000000 0.000000
                        CHANNELS 3 Zrotation Xrotation Yrotation
                        JOINT RightHand
                        {
                            OFFSET -47.774071 0.000000 0.000000
                            CHANNELS 3 Zrotation Xrotation Yrotation
                            End Site
                            {
                                OFFSET -26.556021 0.000000 0.000000
                            }
                        }
                    }
                }
            }
        }
    }
    JOINT LeftUpLeg
    {
        OFFSET 17.704014 0.000000 0.000000
        CHANNELS 3 Zrotation Xrotation Yrotation
        JOINT LeftLeg
        {
            OFFSET -0.000000 -81.181816 0.000000
            CHANNELS 3 Zrotation Xrotation Yrotation
            JOINT LeftFoot
            {
                OFFSET -0.000000 -62.821102 0.000000
                CHANNELS 3 Zrotation Xrotation Yrotation
                JOINT LeftToeBase
                {
                    OFFSET -0.000000 -11.507608 26.556021
                    CHANNELS 3 Zrotation Xrotation Yrotation
                    End Site
                    {
                        OFFSET -0.000000 0.000000 7.081605
                    }
                }
            }
        }
    }
    JOINT RightUpLeg
    {
        OFFSET -17.704014 0.000000 0.000000
        CHANNELS 3 Zrotation Xrotation Yrotation
        JOINT RightLeg
        {
            OFFSET -0.000000 -81.181816 0.000000
            CHANNELS 3 Zrotation Xrotation Yrotation
            JOINT RightFoot
            {
                OFFSET -0.000000 -62.821102 0.000000
                CHANNELS 3 Zrotation Xrotation Yrotation
                JOINT RightToeBase
                {
                    OFFSET -0.000000 -11.507608 26.556021
                    CHANNELS 3 Zrotation Xrotation Yrotation
                    End Site
                    {
                        OFFSET -0.000000 0.000000 7.081605
                    }
                }
            }
        }
    }
}
MOTION
Frames:    9
Frame Time:    0.008333
22.946232    156.974274    -30.806648    1.936645    2.388464    -56.837349    2.022729    -1.098873    0.541462    1.108752    3.001598    0.144242    16.410679    0.200832    15.441219    -11.956196    7.955976    12.803406    12.428914    -1.470131    -18.866688    -10.350955    -17.943508    -40.823303    9.185845    -40.033878    -21.142570    -24.223957    -30.214931    -45.407124    -8.716131    2.612144    -1.095715    34.688244    6.389680    78.228577    7.497081    -2.851544    106.564949    4.293829    -12.108400    19.714586    22.856541    -20.306152    -1.559165    -12.635774    19.946405    -8.797877    -9.687113    -1.998621    39.406490    0.000000    0.000000    0.000000    -14.421484    -4.764489    7.183612    5.393207    22.930103    -0.574243    4.097051    -24.667742    -9.390450    0.000000    0.000000    0.000000    
22.882303    156.937622    -30.870712    1.870733    2.359777    -56.581028    2.072272    -1.026855    0.431941    0.989983    2.952793    0.111422    16.438833    0.202591    15.442873    -11.912939    8.008925    12.809800    12.502893    -1.404489    -18.798735    -10.387570    -17.940395    -40.907055    9.175045    -40.079975    -21.189087    -24.282230    -30.229425    -45.469372    -8.670348    2.632283    -1.101524    34.707561    6.445980    78.239891    7.499326    -2.837247    106.575783    4.250195    -12.107626    19.698435    22.823046    -20.333717    -1.722696    -12.630567    19.904190    -8.815907    -9.705555    -1.953592    39.351574    0.000000    0.000000    0.000000    -14.250298    -4.628893    8.157955    5.493786    22.937532    -0.489837    4.045433    -24.864271    -9.415024    0.000000    0.000000    0.000000    
22.818659    156.906860    -30.937840    1.807783    2.319023    -56.306625    2.044599    -1.016943    0.358027    1.005892    2.994559    0.086471    16.474693    0.254189    15.416591    -11.989744    8.003594    12.778563    12.489335    -1.381715    -18.857187    -10.409401    -17.961176    -40.936417    9.144459    -40.091499    -21.231297    -24.282005    -30.244310    -45.470062    -8.672808    2.644493    -1.139679    34.710522    6.479492    78.220673    7.503885    -2.826193    106.585373    4.235292    -12.107379    19.691778    22.774704    -20.369568    -1.917744    -12.633868    19.864878    -8.827751    -9.721942    -1.882588    39.302952    0.000000    0.000000    0.000000    -14.094123    -4.495740    9.000717    5.532631    22.996069    -0.109247    3.871704    -25.047871    -9.653694    0.000000    0.000000    0.000000    
22.758785    156.875443    -31.019855    1.752135    2.282483    -56.024914    2.015322    -1.001165    0.284685    1.025484    3.016694    0.061692    16.497116    0.302924    15.382384    -12.050212    7.994579    12.741408    12.472172    -1.355323    -18.916224    -10.443329    -17.987192    -40.973011    9.130004    -40.038269    -21.257151    -24.298353    -30.176510    -45.478935    -8.667204    2.655807    -1.187954    34.723755    6.515437    78.197258    7.524188    -2.776484    106.588799    4.241883    -12.085436    19.679707    22.730883    -20.423241    -2.068901    -12.625535    19.834837    -8.864169    -9.759734    -1.812826    39.238010    0.000000    0.000000    0.000000    -13.943874    -4.388708    9.816114    5.597214    23.093468    0.241213    3.686057    -25.245155    -9.915881    0.000000    0.000000    0.000000    
22.701052    156.850098    -31.091225    1.708977    2.244174    -55.735012    2.001886    -0.990290    0.198787    1.022781    3.026049    0.033307    16.254917    0.145095    15.323907    -11.648413    8.175404    12.740350    12.452944    -1.324744    -18.963463    -10.481866    -17.990292    -41.006790    9.102332    -40.117485    -21.306517    -24.430399    -30.198629    -45.559578    -8.661802    2.689616    -1.237747    34.727165    6.545930    78.187248    7.532989    -2.717394    106.599388    4.239793    -12.042108    19.667322    22.669945    -20.482597    -2.226769    -12.611959    19.790611    -8.878330    -9.796076    -1.718603    39.156574    0.000000    0.000000    0.000000    -13.802484    -4.261968    10.505463    5.602942    23.136812    0.300150    3.708847    -25.370266    -9.846290    0.000000    0.000000    0.000000    
22.651896    156.825287    -31.170425    1.674296    2.207990    -55.449692    1.999530    -0.986740    0.122924    0.982973    3.046403    0.009434    16.285612    0.131929    15.307999    -11.656114    8.233414    12.722585    12.474263    -1.291667    -19.021255    -10.501458    -17.961462    -41.019981    9.112954    -40.119789    -21.363737    -24.410513    -30.210199    -45.527370    -8.610484    2.719139    -1.295086    34.708813    6.563505    78.169029    7.564608    -2.640312    106.628326    4.245261    -12.013638    19.642672    22.614727    -20.557394    -2.357196    -12.607759    19.762138    -8.905956    -9.815054    -1.600104    39.076534    0.000000    0.000000    0.000000    -13.680264    -4.164359    11.118702    5.625051    23.227657    0.471509    3.678140    -25.533340    -9.848221    0.000000    0.000000    0.000000    
22.607485    156.801193    -31.257826    1.638126    2.167013    -55.177113    1.999773    -0.960125    0.048293    0.935102    3.045923    -0.013020    16.341633    0.130412    15.298047    -11.703268    8.285069    12.705597    12.488811    -1.236277    -19.042643    -10.508327    -17.934608    -41.068550    9.118574    -40.143452    -21.406841    -24.398834    -30.241360    -45.509495    -8.568153    2.728176    -1.328199    34.729385    6.580527    78.123711    7.617283    -2.512897    106.660477    4.194958    -11.973938    19.624201    22.559116    -20.624002    -2.420182    -12.572433    19.740767    -9.007822    -9.870991    -1.505309    39.010040    0.000000    0.000000    0.000000    -13.562813    -4.075400    11.616999    5.622056    23.337675    0.702781    3.597859    -25.667801    -9.899011    0.000000    0.000000    0.000000    
22.565989    156.773453    -31.349030    1.610680    2.136216    -54.904362    2.010981    -0.950003    -0.007651    0.887584    3.050806    -0.033311    16.358454    0.104746    15.268703    -11.699668    8.351051    12.675631    12.497337    -1.200646    -19.100086    -10.531297    -17.941153    -41.097023    9.039396    -40.174953    -21.481581    -24.384544    -30.280355    -45.553837    -8.526631    2.744454    -1.384073    34.711029    6.598468    78.083565    7.651324    -2.418291    106.702179    4.178327    -11.937586    19.608887    22.512320    -20.712961    -2.470392    -12.549606    19.740763    -9.099524    -9.897060    -1.397914    38.931812    0.000000    0.000000    0.000000    -13.461671    -3.983577    12.083634    5.652101    23.400805    0.713647    3.618947    -25.750317    -9.778836    0.000000    0.000000    0.000000    
22.530708    156.745590    -31.444342    1.588854    2.110000    -54.638691    2.016408    -0.932462    -0.063526    0.869655    3.040182    -0.050252    16.325815    0.084747    15.235356    -11.664681    8.390134    12.649123    12.482361    -1.175839    -19.153149    -10.546578    -17.906372    -41.112877    9.040378    -40.140205    -21.513939    -24.406113    -30.228210    -45.563618    -8.525262    2.749999    -1.437254    34.719086    6.616992    78.043198    7.697747    -2.296008    106.739105    4.111530    -11.897331    19.613792    22.468653    -20.810854    -2.509838    -12.524903    19.739874    -9.212154    -9.931308    -1.296415    38.878227    0.000000    0.000000    0.000000    -13.357678    -3.917945    12.413960    5.622741    23.512602    0.818982    3.716384    -25.870024    -9.658862    0.000000    0.000000    0.000000    
